<svg id="Layer_1" data-name="Layer 1" xmlns="http://www.w3.org/2000/svg" xmlns:xlink="http://www.w3.org/1999/xlink" viewBox="0 0 147.06 153.63"><defs><style>.cls-1{fill:none;}.cls-2,.cls-20{fill:#1c1c1b;}.cls-3{fill:#fff;}.cls-4{clip-path:url(#clip-path);}.cls-5{fill:#d63c15;}.cls-6{fill:#ebf7fe;}.cls-10,.cls-11,.cls-12,.cls-13,.cls-14,.cls-15,.cls-16,.cls-17,.cls-18,.cls-19,.cls-20,.cls-7,.cls-8,.cls-9{fill-rule:evenodd;}.cls-7{fill:url(#New_Gradient_Swatch_6);}.cls-8{fill:url(#New_Gradient_Swatch_6-2);}.cls-9{fill:url(#New_Gradient_Swatch_6-3);}.cls-10{fill:url(#New_Gradient_Swatch_6-4);}.cls-11{fill:url(#New_Gradient_Swatch_6-5);}.cls-12{fill:url(#New_Gradient_Swatch_6-6);}.cls-13{fill:url(#New_Gradient_Swatch_6-7);}.cls-14{fill:url(#New_Gradient_Swatch_6-8);}.cls-15{fill:url(#New_Gradient_Swatch_6-9);}.cls-16{fill:url(#New_Gradient_Swatch_6-10);}.cls-17{fill:url(#New_Gradient_Swatch_6-11);}.cls-18{fill:url(#New_Gradient_Swatch_6-12);}.cls-19{fill:url(#New_Gradient_Swatch_6-13);}.cls-21{fill:#009fe3;}.cls-22{fill:#b8a40a;}</style><clipPath id="clip-path" transform="translate(-8.67 -18.87)"><path class="cls-1" d="M56.87,84.16a4.1,4.1,0,0,1-2.39-3.72V36.78h55.45V80.52a4.18,4.18,0,0,1-2.4,3.73l-25.32,12Z"/></clipPath><radialGradient id="New_Gradient_Swatch_6" cx="34858.08" cy="-44223.62" r="0" gradientTransform="translate(-2732.78 3454.48) scale(0.08 0.08)" gradientUnits="userSpaceOnUse"><stop offset="0" stop-color="#f7efcd"/><stop offset="0.7" stop-color="#cab83a"/><stop offset="0.97" stop-color="#b8a300"/></radialGradient><radialGradient id="New_Gradient_Swatch_6-2" cx="34858.27" cy="-44223.99" xlink:href="#New_Gradient_Swatch_6"/><radialGradient id="New_Gradient_Swatch_6-3" cx="35197.51" cy="-44206.74" xlink:href="#New_Gradient_Swatch_6"/><radialGradient id="New_Gradient_Swatch_6-4" cx="34857" cy="-44222.31" xlink:href="#New_Gradient_Swatch_6"/><radialGradient id="New_Gradient_Swatch_6-5" cx="35081.11" cy="-44108.01" r="217.01" gradientTransform="translate(-2724.11 3473.35) scale(0.08 0.08)" xlink:href="#New_Gradient_Swatch_6"/><radialGradient id="New_Gradient_Swatch_6-6" cx="35199.1" cy="-44207.38" xlink:href="#New_Gradient_Swatch_6"/><radialGradient id="New_Gradient_Swatch_6-7" cx="35182.89" cy="-44210.34" xlink:href="#New_Gradient_Swatch_6"/><radialGradient id="New_Gradient_Swatch_6-8" cx="35218.59" cy="-44117.69" xlink:href="#New_Gradient_Swatch_6"/><radialGradient id="New_Gradient_Swatch_6-9" cx="35253.43" cy="-44230.39" xlink:href="#New_Gradient_Swatch_6"/><radialGradient id="New_Gradient_Swatch_6-10" cx="35095.98" cy="-43962.8" r="0.23" gradientTransform="translate(-2724.11 3473.35) scale(0.08 0.08)" xlink:href="#New_Gradient_Swatch_6"/><radialGradient id="New_Gradient_Swatch_6-11" cx="34866.33" cy="-44189.25" xlink:href="#New_Gradient_Swatch_6"/><radialGradient id="New_Gradient_Swatch_6-12" cx="34846.77" cy="-44239.8" xlink:href="#New_Gradient_Swatch_6"/><radialGradient id="New_Gradient_Swatch_6-13" cx="34860.85" cy="-44189.76" xlink:href="#New_Gradient_Swatch_6"/></defs><path class="cls-2" d="M45.65,167a5.68,5.68,0,0,0-1-.51,6.86,6.86,0,0,1-1-.43,2.27,2.27,0,0,1-.67-.54,1.18,1.18,0,0,1-.24-.8,1.47,1.47,0,0,1,.1-.56,1.06,1.06,0,0,1,.29-.42,1,1,0,0,1,.43-.28,1.49,1.49,0,0,1,1.06,0,1.64,1.64,0,0,1,.37.26,1.46,1.46,0,0,1,.24.33,2.84,2.84,0,0,1,.16.38l.08.21h.64l0-.25a6.35,6.35,0,0,1,.15-.62,2.11,2.11,0,0,1,.17-.44l.12-.22-.2-.17a3.08,3.08,0,0,0-1-.53,4.15,4.15,0,0,0-2.49,0,3.11,3.11,0,0,0-1,.59,2.6,2.6,0,0,0-.66.92,3.11,3.11,0,0,0-.22,1.16,2.62,2.62,0,0,0,.36,1.45,3.1,3.1,0,0,0,.86.87,6.21,6.21,0,0,0,1.06.54,8.44,8.44,0,0,1,1,.43,2.22,2.22,0,0,1,.67.53,1.18,1.18,0,0,1,.24.79,2.08,2.08,0,0,1-.11.66,1.58,1.58,0,0,1-.8.86,1.9,1.9,0,0,1-1.31,0,1.58,1.58,0,0,1-.51-.29,1.56,1.56,0,0,1-.38-.39,2.39,2.39,0,0,1-.25-.43l-.08-.19h-.65l0,.28c0,.26-.05.46-.08.62a3.47,3.47,0,0,1-.15.51l-.08.21.17.14a4.09,4.09,0,0,0,.93.56,3.53,3.53,0,0,0,1.45.25,4,4,0,0,0,1.47-.25,3.06,3.06,0,0,0,1.13-.71,3.11,3.11,0,0,0,.7-1.07,3.53,3.53,0,0,0,.24-1.3,2.38,2.38,0,0,0-.37-1.37A3.06,3.06,0,0,0,45.65,167Z" transform="translate(-8.67 -18.87)"/><path class="cls-2" d="M60.53,162.4l-.25-.05-.1.23c-.18.38-.36.78-.56,1.19s-.41.81-.63,1.21l-.65,1.19-.35.6-1-1.9q-.62-1.12-1.2-2.31l-.1-.2-.58.08a3.53,3.53,0,0,1-.65,0l-1-.14.35.57c.09.14.21.36.38.64l2.43,4.19c.14.25.26.44.34.59,0,.7,0,1.37,0,2s0,1.22-.09,1.68l0,.38.38,0a6.32,6.32,0,0,1,1.23,0l.38,0,0-.37c0-.19,0-.44,0-.74s0-.65,0-1,0-.74,0-1.11,0-.69,0-1,.29-.54.46-.86l.67-1.17c.26-.43.55-.91.88-1.44s.71-1.12,1.13-1.78l.41-.64-.74.16A1.39,1.39,0,0,1,60.53,162.4Z" transform="translate(-8.67 -18.87)"/><path class="cls-2" d="M77.09,163.69h0a3.74,3.74,0,0,0-1.47-1,8,8,0,0,0-3.11-.3,18.1,18.1,0,0,1-2,0l-1-.05-.35,0,.09,2.1c0,.57,0,1.15,0,1.75v2.33q0,.88,0,1.74c0,.58,0,1.15-.07,1.71l0,.35.35,0q.44,0,.87,0h.88l.87,0a8.47,8.47,0,0,0,2.6-.24,4.66,4.66,0,0,0,1.67-.86,4.71,4.71,0,0,0,1.24-1.61,5.38,5.38,0,0,0,.49-2.42,7.39,7.39,0,0,0-.25-2A3.86,3.86,0,0,0,77.09,163.69Zm-1.16,5.57a3.28,3.28,0,0,1-.85,1.21,2.64,2.64,0,0,1-1.16.6,7.72,7.72,0,0,1-2.33.14l-.47-.05c0-.85-.07-1.73-.07-2.61v-2.33c0-.49,0-1,0-1.44s0-.74.05-1.09l.65-.06a8.7,8.7,0,0,1,2.5.12,2.36,2.36,0,0,1,1,.54,2.7,2.7,0,0,1,.7,1.07,5.51,5.51,0,0,1,.26,1.83A5.26,5.26,0,0,1,75.93,169.26Z" transform="translate(-8.67 -18.87)"/><path class="cls-2" d="M93.83,162.46a1.41,1.41,0,0,1-.36-.06l-.42-.11,0,.43c.05.8.07,1.64.09,2.53s0,1.82,0,2.77v1l-.87-.93-1.71-1.88-1.82-2-1.81-2h-.68v.34c0,.3,0,.76,0,1.38v2.23c0,.3,0,.63,0,1l0,1.16c0,.4,0,.79-.06,1.19l0,1.1c0,.34,0,.62-.06.87a4,4,0,0,1-.06.47l-.08.42.43,0a3.17,3.17,0,0,1,.87,0l.41,0-.06-.41c0-.06,0-.19,0-.38L87.57,170c0-.31,0-.62,0-.93l0-.88v-.7c0-.73,0-1.31,0-1.73v-.23c1,1.05,1.93,2.11,2.9,3.18,1.13,1.25,2.22,2.49,3.22,3.68l.09.12h.65v-.77c0-.21,0-.47,0-.77l0-1.95c0-.34,0-.66,0-1v-.82c0-.25,0-.6,0-1s0-.88.06-1.33,0-.87.06-1.27,0-.69.06-.89l0-.44-.43.11A1.49,1.49,0,0,1,93.83,162.46Z" transform="translate(-8.67 -18.87)"/><path class="cls-2" d="M108.28,171.32l.14-.49-.51.1a4.2,4.2,0,0,1-.7.1l-.9.05c-.32,0-.64,0-1,0h-.61c0-.12,0-.27,0-.44,0-.34,0-.76,0-1.27v-1.65H105l.86,0c.3,0,.59,0,.89,0s.56,0,.78.07l.43,0-.08-.42a2.21,2.21,0,0,1,0-.35,2,2,0,0,1,0-.36l.08-.42-.42,0-.6,0-.7,0-.84,0-.72,0v-.45c0-.33,0-.68,0-1s0-.62,0-.87,0-.35,0-.53l.79,0,.84,0,.74.05.77.05.41,0-.08-.4a2.07,2.07,0,0,1,0-.35,2,2,0,0,1,0-.34l.08-.4-1.57.07c-.77,0-1.56,0-2.33,0l-1.18-.05h-.34v.34c0,.58.06,1.15.08,1.73s0,1.16,0,1.75v2.33c0,.59,0,1.18,0,1.74s0,1.15-.08,1.73v.35l.34,0,1.19,0h2.39l1.16,0,.44,0-.12-.42a1.09,1.09,0,0,1,0-.27,1.34,1.34,0,0,1,0-.19A.77.77,0,0,1,108.28,171.32Z" transform="translate(-8.67 -18.87)"/><path class="cls-2" d="M122.88,162.4a1.36,1.36,0,0,1-.89,0l-.25-.05-.11.23c-.17.38-.36.78-.56,1.19l-.62,1.21c-.22.41-.44.8-.66,1.19-.12.21-.23.41-.34.59-.36-.65-.71-1.28-1-1.89s-.8-1.52-1.2-2.31l-.1-.2-.57.08a3.64,3.64,0,0,1-.66,0l-1-.14.34.57c.09.14.22.36.38.64L118,167.7l.35.59c0,.7,0,1.37,0,2s0,1.22-.09,1.68l0,.38.39,0a6.32,6.32,0,0,1,1.23,0l.37,0,0-.37c0-.19,0-.44,0-.74s0-.65,0-1,0-.74,0-1.12v-1c.13-.26.28-.54.46-.86s.41-.73.67-1.17.54-.91.87-1.44l1.13-1.78.41-.64Z" transform="translate(-8.67 -18.87)"/><path class="cls-3" d="M51.75,80.44V18.87h60.91V80.52a6.76,6.76,0,0,1-3.92,6.09L82.2,99.2,55.66,86.53A6.78,6.78,0,0,1,51.75,80.44Z" transform="translate(-8.67 -18.87)"/><g class="cls-4"><polygon class="cls-5" points="62.28 16.87 62.28 36.02 43.07 36.02 43.07 55.77 62.28 55.77 62.28 80.33 73.53 80.33 84.78 80.33 84.78 55.77 103.99 55.77 103.99 36.02 84.78 36.02 84.78 16.87 62.28 16.87"/></g><path class="cls-6" d="M102.22,92.49,82.2,102l-20-9.49a7.26,7.26,0,0,0-6.21,0l-4,1.92a.39.39,0,0,0-.21.34v11.12A1.56,1.56,0,0,0,54,107.22l2-1a7.3,7.3,0,0,1,6.21,0l18.3,8.68a4,4,0,0,0,3.43,0l18.3-8.68a7.3,7.3,0,0,1,6.21,0l2,1a1.56,1.56,0,0,0,2.25-1.35V94.75a.39.39,0,0,0-.21-.34l-4-1.92A7.26,7.26,0,0,0,102.22,92.49Z" transform="translate(-8.67 -18.87)"/><path class="cls-2" d="M105.32,92.35a6.68,6.68,0,0,1,2.85.65l3.91,1.87v11a1,1,0,0,1-1,.95,1.08,1.08,0,0,1-.43-.1l-2-1a7.83,7.83,0,0,0-6.71,0l-18.3,8.68a3.55,3.55,0,0,1-1.47.33,3.5,3.5,0,0,1-1.46-.33l-18.3-8.68a7.88,7.88,0,0,0-3.35-.75,7.79,7.79,0,0,0-3.36.76l-2,1a1.12,1.12,0,0,1-.43.1,1,1,0,0,1-1-.95v-11L56.24,93a6.6,6.6,0,0,1,5.69,0l20,9.49.25.13.26-.13,20-9.49a6.62,6.62,0,0,1,2.84-.64m0-.56a7.16,7.16,0,0,0-3.1.7L82.2,102l-20-9.49a7.16,7.16,0,0,0-3.1-.7,7.35,7.35,0,0,0-3.11.7l-4,1.92a.39.39,0,0,0-.21.34v11.12a1.54,1.54,0,0,0,1.56,1.51,1.58,1.58,0,0,0,.69-.16l2-1a7.2,7.2,0,0,1,3.11-.7,7.3,7.3,0,0,1,3.1.69l18.3,8.68a4,4,0,0,0,3.43,0l18.3-8.68a7.3,7.3,0,0,1,3.1-.69,7.2,7.2,0,0,1,3.11.7l2,1a1.58,1.58,0,0,0,.69.16,1.54,1.54,0,0,0,1.56-1.51V94.75a.39.39,0,0,0-.21-.34l-4-1.92a7.35,7.35,0,0,0-3.11-.7Z" transform="translate(-8.67 -18.87)"/><path class="cls-2" d="M105.32,93.57a5.32,5.32,0,0,1,2.29.51l3.22,1.54v9.82l-1.59-.76a9.17,9.17,0,0,0-7.82,0l-18.31,8.68a2.17,2.17,0,0,1-.91.21,2.24,2.24,0,0,1-.91-.21L63,104.67a9.17,9.17,0,0,0-7.82,0l-1.59.76V95.62l3.22-1.54a5.4,5.4,0,0,1,4.58,0l20.7,9.82.12.06.13-.06L103,94.08a5.32,5.32,0,0,1,2.29-.51m0-.27a5.73,5.73,0,0,0-2.41.54L82.2,103.66,61.5,93.84a5.73,5.73,0,0,0-2.41-.54,5.64,5.64,0,0,0-2.42.55l-3.37,1.6v10.42l2-1a8.91,8.91,0,0,1,3.8-.86,8.78,8.78,0,0,1,3.78.85l18.3,8.68a2.44,2.44,0,0,0,2.07,0l18.3-8.68a8.78,8.78,0,0,1,3.78-.85,8.91,8.91,0,0,1,3.8.86l2,1V95.45l-3.37-1.6a5.56,5.56,0,0,0-2.41-.55Z" transform="translate(-8.67 -18.87)"/><rect class="cls-2" x="43.07" width="60.92" height="16.87"/><g id="Gold_Fill" data-name="Gold Fill"><polygon class="cls-7" points="55.87 35.99 55.87 35.99 55.87 35.99 55.87 35.99"/><polygon class="cls-8" points="55.88 35.97 55.88 35.97 55.88 35.97 55.88 35.97"/><polygon class="cls-9" points="83.02 37.3 83.02 37.3 83.02 37.3 83.02 37.3"/><polygon class="cls-10" points="55.78 36.09 55.78 36.09 55.78 36.09 55.78 36.09"/><path class="cls-11" d="M67.6,76l0,0,.08-.07s0,0,0,0l.07-.06a1.49,1.49,0,0,0,.15-.2l.09-.14.23.09-.21-.13.06-.12.24.08-.22-.12,0-.12.25.06-.24-.09.14-.5c0-.06,0-.11,0-.15a.93.93,0,0,1,.17-.44l.11-.12.15-.14,0,0,.13-.09h0l.07,0h.06l0,0h.13a1.15,1.15,0,0,1,.72.17,2.71,2.71,0,0,0,1.25.31,4.23,4.23,0,0,0,.94-.13.42.42,0,0,1,0-.55l0,0,.26-.09c.31-.09.62-.19.92-.3a1.9,1.9,0,0,1,.81-.34l.28-.08a.39.39,0,0,1-.13-.27v-.1l.08-.07a.89.89,0,0,1,.45-.17l.08,0a.23.23,0,0,1-.09-.19c0-.23.22-.36,1-.79.23-.12.57-.31.77-.44a1.91,1.91,0,0,1-.47-.72.37.37,0,0,1,.2-.44l.12,0a1.91,1.91,0,0,0,1-.53l0-.06.08,0,.68-.21c1-.3,2.66-.8,3.46-1.08l.34-.12v.49l-.18,0h.18l0,.36a.19.19,0,0,0,0,.08v.13a.64.64,0,0,0,0,.09v0a1.2,1.2,0,0,0,.25.57l.12.11a2.38,2.38,0,0,0,1,.42,2.76,2.76,0,0,0,.44,0c.22,0,.45,0,.68,0a8.06,8.06,0,0,1,1.39,0,.79.79,0,0,1,.8.69A1.12,1.12,0,0,1,86,71.44a6.56,6.56,0,0,1-1.69.15h0a1.87,1.87,0,0,1-1.57-.8l-.08-.1a1.28,1.28,0,0,0-.34-.22,3.47,3.47,0,0,0-.41-.16,2,2,0,0,1-.6-.28,1.24,1.24,0,0,1-.19-.16l-.15-.19,0-.05c-.17-.24-.28-.38-.47-.38a.7.7,0,0,0-.5.18l-.14.14-.17-.11a1.19,1.19,0,0,0-1.38.37,1.16,1.16,0,0,0-.22.36l.08,0h.23l.13,0,.1,0h0l.1,0h0l.1,0,.09.06,0,0,.09.07h0l.07.08.06.06v0s0,0,0,0l0,0,.06.11,0,0a.54.54,0,0,1,0,.35c0,.14-.16.42-.42.42a.33.33,0,0,1-.19-.06.93.93,0,0,0-.41-.11,1.15,1.15,0,0,0-1,.74,1.36,1.36,0,0,0-.07.22,1.46,1.46,0,0,1,1.45.16.84.84,0,0,1,.38.86v.17l-.17.06a1.46,1.46,0,0,0-1.23,1.29,3.59,3.59,0,0,1,1.82-.34h.1l.07.07a.84.84,0,0,0,1,.22,5.08,5.08,0,0,0,.78-.76,2.12,2.12,0,0,1,.59-.54h0a.58.58,0,0,1,.22-.06.4.4,0,0,1,.35.21,1,1,0,0,1,0,.62,1.22,1.22,0,0,1-.52.64,1,1,0,0,0,.28,0,2.29,2.29,0,0,0,.81-.1.46.46,0,0,0,.1-.05l.16-.08a.46.46,0,0,1,.24-.08h.09a.3.3,0,0,1,.17.12.4.4,0,0,1,0,.31,2.16,2.16,0,0,1-.1.25.86.86,0,0,0,.95-.43l.16-.3.25.25a3.61,3.61,0,0,1,.25.3,1.28,1.28,0,0,0,.17.22,1.36,1.36,0,0,1,.61-.94l.38-.24v.44a2.21,2.21,0,0,0,.25.7,2.46,2.46,0,0,1,.22-.46s.18-.26.37-.26h0c.22,0,.31.17.44.41a3.24,3.24,0,0,0,.2.33,5.48,5.48,0,0,1,.62-1l.1-.09.14,0,.3.08a7.62,7.62,0,0,0,1,.2,1.94,1.94,0,0,1-.44-1.34.57.57,0,0,1,0-.13l0-.11a1.3,1.3,0,0,1,.58-.62l.08-.06a1.44,1.44,0,0,0,.32-.26.93.93,0,0,0,.32-.73c-.08-.26-.36-.46-.66-.67a4.17,4.17,0,0,1-.47-.36A1.57,1.57,0,0,1,90,68.64a.54.54,0,0,1,.16-.21l.16-.13.16.12c.62.49,1.16.89,1.74,1.29a2.72,2.72,0,0,0,1.69.52,3.27,3.27,0,0,0,.54,0,5,5,0,0,1,.69,0c1.16,0,2.41.35,2.41,1.32a1.59,1.59,0,0,1-1.34,1.43l-.17,0H96l0,0a1.44,1.44,0,0,1-.47-.65c-.13-.27-.22-.44-.38-.48l0,0c-.12,0-.4.09-.68.34l-.12.1-.14-.06a1.54,1.54,0,0,0-2.11.71h0a2.31,2.31,0,0,1,.46,0,1.9,1.9,0,0,1,1.36.52l.07.07v.1a.33.33,0,0,1-.16.28,1.35,1.35,0,0,0-.39.49l-.06.09-.11,0a1.94,1.94,0,0,0-1.12,1.61,4.28,4.28,0,0,1,2-.54h.1l.08.07a1,1,0,0,1,.2.69v.16l-.14.06a4.17,4.17,0,0,1-1.36.4,2.35,2.35,0,0,0,1.38.41,1.61,1.61,0,0,0,1-.3l.08-.08h.13a1.06,1.06,0,0,0,1.08-.38.81.81,0,0,0,0-.81A.42.42,0,0,1,97,75l.17,0a.81.81,0,0,1,.63.3,1.75,1.75,0,0,1,.33,1.17,1.14,1.14,0,0,0,.65-.49l0,0a.67.67,0,0,0,.12-.2,1.4,1.4,0,0,0,.16-.42l0-.2h.21a2.58,2.58,0,0,0,1.73-.55,1.23,1.23,0,0,1-.32-.19l0,0a.36.36,0,0,1-.13-.49v0a2.29,2.29,0,0,1,.63-.42l.33-.18a.44.44,0,0,1-.18-.33v-.06l0,0a1.17,1.17,0,0,1,.44-.38l.15-.09c-.18,0-.34-.14-.34-.33V71.9l.07-.07a2.15,2.15,0,0,1,.27-.23c.19-.16.49-.39.73-.63h0a.93.93,0,0,1-.72-.25l-.12-.12.07-.15a1.13,1.13,0,0,1,.45-.47.81.81,0,0,1-.27-.15l0,0,0,0c-.11-.21,0-.44.11-.68a1.76,1.76,0,0,0,.17-.52h0l-.1,0a.31.31,0,0,1-.39-.11c-.09-.16,0-.31.11-.52a2.5,2.5,0,0,0,.17-.33,5.55,5.55,0,0,0-.62.27,3.7,3.7,0,0,1-1.63.47l-.3,0h-.09l-.09-.11a.57.57,0,0,1-.09-.16,1,1,0,0,0-.89-.63.21.21,0,0,0-.15,0,3.72,3.72,0,0,1-1.83.71,1.06,1.06,0,0,1-.45-.09l-.07,0-.07,0L95.73,68a2.78,2.78,0,0,1-.66-1.39c0-.06,0-.14,0-.24a7,7,0,0,0-.24-.92,3.28,3.28,0,0,0-.87-.74,3.72,3.72,0,0,1-1.49-1.55v0l0-.1-.15-.4,2.14.3h.36l1.48-.13.93-.25L98,62.1l.49-.41.44-.59,0-.06L99,61l0,0,0-.07.11-.27a.64.64,0,0,1,0-.07.24.24,0,0,0,0-.08l0-.15a.19.19,0,0,0,0-.07l.1-.68V59.1a.34.34,0,0,1,.17-.34h0l.18-.1.23-.13.16-.11.15-.11.07,0,.09-.08.06-.06.08-.09v0l0,0,.22.11-.21-.14a.1.1,0,0,0,0-.05l.23.1-.21-.13,0-.06.23.09-.22-.11a1.51,1.51,0,0,0,.09-.18v0s0-.06,0-.08v0s0-.05,0-.06v0s0-.07,0-.1a.62.62,0,0,0,0-.13v-.17a.28.28,0,0,0,0-.09v0s0-.08,0-.12v-.06a1.56,1.56,0,0,1,0-.36h0v-.13s0-.06,0-.1,0-.09,0-.12v0s0-.08,0-.12v0l0-.12s0,0,0,0l-.07.07a1.6,1.6,0,0,1-1,.53c-.49,0-.84-.46-1.12-1.48a.77.77,0,0,1-.59.41H98a2.64,2.64,0,0,1-1-1l-.32-.43,0,.22a.13.13,0,0,0,0,.06v.19a.43.43,0,0,0,0,.05.1.1,0,0,1,0,0,.08.08,0,0,1,0,0l0,.05,0,0,0,0a.12.12,0,0,1,0,0l0,0-.06,0,0,0-.06,0h-.11l-.14,0-.07,0h0l-.49-.26-.07,0,.11-.22-.14.2L95,54l.09-.23L95,54h0a.62.62,0,0,1-.18.59l-.06,0-.08,0-.44,0A3.25,3.25,0,0,1,93,54.36v.07a.35.35,0,0,1-.12.28l0,0a.74.74,0,0,1-.44.13.9.9,0,0,1,.11.83l0,0a.77.77,0,0,1-.07.16s0,0,0,0l0,.05,0,0,0,0h0l0,0,0,0L92.09,56h0l.16.19-.07,0-.31.18-.18.05,0,0h0l-.06,0h-.3l-.29,0h-.07l-.09,0-.1,0-.06,0,0,0,0,0s0,0,0,0l-.05,0-.08-.08,0,0,0,0,0,0s0,0,0,0l-.05-.07a.34.34,0,0,1,0-.31c.1-.21.41-.26.73-.32h0a.88.88,0,0,1-.09-1c.09-.35.53-.58,1.08-.88.7-.37,1.47-.78,1.58-1.39a4.1,4.1,0,0,0-.4.11,3.5,3.5,0,0,1-.93.19.82.82,0,0,1-.61-.23.85.85,0,0,1-.2-.45A3.57,3.57,0,0,1,89,52.4h0a2.81,2.81,0,0,1-1.05-.78,4.08,4.08,0,0,0-1.56-1.08v.83H86a7.15,7.15,0,0,0-1.2.06,1.27,1.27,0,0,1,1.18.92c.2.63-.44,1-1.19,1.45a6.64,6.64,0,0,0-1.55,1.12l-.15.17L83,55a3.79,3.79,0,0,1-.58-.56c-.1-.1-.22-.24-.28-.29H81.6l.36-.4a1.51,1.51,0,0,0,.45-.9,1.75,1.75,0,0,0-.33-1,2.31,2.31,0,0,1-.86.16c-.48,0-.82-.15-.93-.39a.43.43,0,0,1,0-.28l-.19,0H80a3.7,3.7,0,0,0-2.27.47l-.19.15-.16-.19a3.44,3.44,0,0,0-2-1.21h-.07l-.06,0a.46.46,0,0,0-.07-.07,1,1,0,0,1-1.06.57l0,.08a1.1,1.1,0,0,1,0,.29v.36l-.34-.14a2,2,0,0,0-.64-.1,2.12,2.12,0,0,0-.66.11H72.5l-.33,0a.29.29,0,0,1,0,.16v0a1.51,1.51,0,0,1-1,1l-.06,0a.91.91,0,0,1,.33.38c.14.22-.07.49-.69,1.06h0l.29.11c.36.16.29.39.26.46a3,3,0,0,1-.45.6,2.36,2.36,0,0,0-.41.56.63.63,0,0,1,.34.08l.26.12-.17.23-.09.12a6.58,6.58,0,0,0-.75,1.59l.2,0v.21a2.07,2.07,0,0,1-.28,1l0,0,0,0a.36.36,0,0,1-.23.09c-.39,0-.79-.7-1-1.12a5.2,5.2,0,0,1-.53-2c0-2,.29-2.33.48-2.57.06-.07.07-.08.07-.16s-.09-.27-.36-.38a1.15,1.15,0,0,1-.55-.38,1.76,1.76,0,0,0-1.48-.78,1.4,1.4,0,0,0-.41.06,1.16,1.16,0,0,1,.58.6.45.45,0,0,1-.08.56s0,0,0,.07v.24h-.25a.58.58,0,0,0-.19,0,.51.51,0,0,1-.49-.09,2.38,2.38,0,0,0-1.27-.44,1.21,1.21,0,0,0-.63.17l-.06.21.09-.22.19.08.06,0,.07,0,0,0,.08,0,.17.12,0,0,0,0,.06.06,0,0,0,.06,0,.05a.18.18,0,0,1,0,.07.21.21,0,0,1,0,.06.43.43,0,0,1,0,.07l0,.06,0,.06,0,.08,0,.08,0,.14a.5.5,0,0,1,0,.24v0s0,0,0,0l0,0,0,0,0,0,0,0,0,0-.07,0,0,0,0,0h-.36l-.08,0,0,0-.19-.1.12-.22-.14.2-.07,0,0,0-.1-.08.14-.2-.17.18,0,0,.15-.19-.17.18,0,0,.15-.19-.18.17,0,0a1.55,1.55,0,0,0,0,.21v.09a1,1,0,0,0,.51,1.09H64a.42.42,0,0,1,.4.38.23.23,0,0,0,.06.14l0,0,0,0,.06,0h.24l.35-.05h.08a.55.55,0,0,1,.35.12l0,0h0l0,0,.05.08,0,0a.14.14,0,0,1,0,.06l0,0v.11s0,0,0,.06v0l0,0v0l0,.06,0,0,0,0-.13.13-.06,0-.12,0-.11,0h-.33l0-.23h0l0,.23v-.24l0,.24h0a.57.57,0,0,0,.12.32,1.05,1.05,0,0,0,.74.34h.1a.45.45,0,0,1,.42.28.63.63,0,0,1-.11.65l0,0a6.75,6.75,0,0,1-.62.35,2.87,2.87,0,0,0-.91.67c.41,0,.56.24.56.45a.87.87,0,0,1-.3.68.47.47,0,0,1,.4.22c.25.27-.07.6-.33.87a3.07,3.07,0,0,0-.34.38l.32,0a.85.85,0,0,1,.92.69v.05a1.31,1.31,0,0,1-.22.7l.26,0a.49.49,0,0,1,.46.22c.17.22-.07.45-.28.65s-.18.17-.27.27a1.29,1.29,0,0,1,.7,0l.1,0,0,.09a.56.56,0,0,1,0,.57,1.58,1.58,0,0,1-.75.53,2.37,2.37,0,0,0,.82.12,3.92,3.92,0,0,0,1.49-.28l.29-.14.07.3c.17.7.88.89,1.3,1,.24.06.45.12.45.34v.1l-.08.07a1.84,1.84,0,0,0-.6,1.3v0A2.31,2.31,0,0,1,69,71.45a2.11,2.11,0,0,1-1.6.64c-.8,0-1.77-.12-2.11-1.06-.19-.55-.51-.6-1-.28l-.12.09-.14-.07a.87.87,0,0,0-.4-.08,1.64,1.64,0,0,0-1.22.66,1.64,1.64,0,0,1,1.28.74.85.85,0,0,1-.3,1l-.08.07h-.1a1.15,1.15,0,0,0-1.16,1A4.76,4.76,0,0,1,63,74c1,0,1.11.46,1.14.66.07.53-.48,1.1-1.32,1.43a1.61,1.61,0,0,0,.88.33,3,3,0,0,0,1-.27L65,76a.63.63,0,0,1,.52,0l.07,0c.3.12.39,0,.57-.41a1,1,0,0,1,.26-.44.5.5,0,0,1,.32-.11.78.78,0,0,1,.3.07.43.43,0,0,1,.21.24v0l0,.1a.57.57,0,0,1,0,.12v.12a.34.34,0,0,1,0,.11h0s0,.06,0,.08a.45.45,0,0,1,0,.08v0s0,0,0,0v.06h0l.06.22,0-.24h0l.08.23,0-.24.09.23-.07-.24.11,0,.14.21-.12-.22ZM84.72,55.44a2.26,2.26,0,0,1,1.61-.8,1.23,1.23,0,0,1,.63.16,5.59,5.59,0,0,1,1,.9,5.5,5.5,0,0,0,1.26,1l.13.07V57c0,.15,0,.3-1.28.68a8.3,8.3,0,0,1-1.8.35c-1.33,0-2-.49-2-1.52A1.3,1.3,0,0,1,84.72,55.44Zm-2.28,2.77,0-.08.43-.43L83,58a2.39,2.39,0,0,0,2.39,1.27h0a6.3,6.3,0,0,0,1.1-.11,31.86,31.86,0,0,0,3.76-.87,21.29,21.29,0,0,1,4.87-1c.92,0,2.93.45,2.93,1.8A2.25,2.25,0,0,1,97.2,61l0,0c-1,.68-3.72.69-3.75.69-.63,0-2.31,0-3-.59a5.89,5.89,0,0,0-.48-.36,3.09,3.09,0,0,0-1.17-.2,12.4,12.4,0,0,0-3,.53,11.09,11.09,0,0,1-2.65.49.34.34,0,0,1-.25-.12A7.32,7.32,0,0,1,82.44,58.21Z" transform="translate(-8.67 -18.87)"/><polygon class="cls-12" points="83.15 37.25 83.15 37.25 83.15 37.25 83.15 37.25"/><polygon class="cls-13" points="81.85 37.02 81.85 37.02 81.85 37.02 81.85 37.02"/><polygon class="cls-14" points="84.71 44.18 84.71 44.18 84.71 44.18 84.71 44.18"/><polygon class="cls-15" points="87.5 35.47 87.5 35.47 87.5 35.47 87.5 35.47"/><path class="cls-16" d="M83.55,75v0h0l0,0Z" transform="translate(-8.67 -18.87)"/><polygon class="cls-17" points="56.53 38.65 56.53 38.65 56.53 38.65 56.53 38.65"/><polygon class="cls-18" points="54.96 34.74 54.96 34.74 54.96 34.74 54.96 34.74"/><polygon class="cls-19" points="56.09 38.61 56.09 38.61 56.09 38.61 56.09 38.61"/></g><path id="Black_Outline" data-name="Black Outline" class="cls-20" d="M103.21,70.7c-.28,0-.82.13-1.08-.14.26-.51.66-.38.66-.65s-.4-.13-.53-.26.41-.77.28-1.29c-.15-.13-.26,0-.41,0-.41.13.54-.78.13-1-.93.26-1.61.91-2.68.79a1.36,1.36,0,0,0-1.18-.91.46.46,0,0,0-.32.09c-.58.4-1.62.91-2.12.55a2.29,2.29,0,0,1-.64-1.31A8.72,8.72,0,0,0,95,65.3c-.5-.79-1.93-1.1-2.38-2.37,2.39.5,7,.5,7-3.83a.14.14,0,0,1,.08-.16,2.13,2.13,0,0,0,1.42-2.34,1.33,1.33,0,0,1,0-.32,1.63,1.63,0,0,1,.22-.92,1.09,1.09,0,0,1,.19-.21c-.67-.51-1.73,2.52-2.53-.68,0-.08-.14-.28-.29-.24,0,.27-.31.72-.53.65-.68-.25-1.22-1.82-1.76-1.67.14.61.27,1.1-.07,1.14a.17.17,0,0,1-.12,0c-.51-.14-.88-.63-1.41-.75-.13.27.13.52-.13.77a4.08,4.08,0,0,1-2-.38c0,.12.11.23.13.45a.11.11,0,0,1,0,.11c-.24.18-.57,0-.72,0s0,0,0,0c0,.22.54.46.35,1.07a1,1,0,0,1-.15.3c-.3.33-1.31.57-1.66-.12-.15-.27.8-.27.93-.4-.13-.25-.54-.39-.26-1,.13-.65,2.81-1.15,2.68-2.59-.54-.13-2.29,1-2.16-.51a.26.26,0,0,0-.2.06,3.63,3.63,0,0,1-2.48.84c-.8-.25-1.47-1.69-2.94-1.94v.9c-.93,0-1.75,0-1.88.52.8,0,1.34,0,1.62.78s-1.62,1.17-2.68,2.34c-.34-.24-.82-.9-.95-.9a1.78,1.78,0,0,0,.51-1.06,1.89,1.89,0,0,0-.23-.89,1.44,1.44,0,0,0-.28-.39c-.67.39-2.14.25-1.47-.4a1.07,1.07,0,0,0-.67,0,3.91,3.91,0,0,0-2.42.52,3.65,3.65,0,0,0-2.14-1.3c-.14-.12-.27-.24-.4-.24-.14.64-.53.77-1.21.64a6.12,6.12,0,0,0,.13.65,2.29,2.29,0,0,0-1.47,0,8.35,8.35,0,0,1-1-.13c0,.13.42.38.42.51-.13.65-.93.79-1.21,1,.28.25.4.25.53.52s-.8.9-.93,1c.26.14.87.24.8.4-.27.52-1,.89-1,1.54.15,0,.28-.12.55,0a6.29,6.29,0,0,0-.88,1.8.2.2,0,0,0,.08.26.34.34,0,0,0,.12,0,1.84,1.84,0,0,1-.26.9c-.28.25-1.34-1.55-1.34-2.85,0-2.73.54-2.21.54-2.73s-.67-.5-1-.9a1.89,1.89,0,0,0-2.68-.52c.41.13.67.13,1,.65.13.27-.15.27-.15.52-.26,0-.39.13-.52,0a1.9,1.9,0,0,0-2.55,0,1.7,1.7,0,0,1,1.45,1.19.48.48,0,0,1,0,.17c-.29.65-1.19-.46-1.19-.46a1.44,1.44,0,0,0,.41,2,.81.81,0,0,0,.2,0c.26,0,.14.28.34.46l.25.11a2.29,2.29,0,0,0,.69,0,.35.35,0,0,1,.25.07c.11.09.11.19,0,.34s-.1.12-.18.13a2.24,2.24,0,0,1-.73,0,1.08,1.08,0,0,0,.18.75,1.35,1.35,0,0,0,1,.42c.26,0,.26.4.13.52-.8.53-1.47.65-1.88,1.55.41-.12.8-.12.8.13s-.26.52-.52.79c0,0-.15,0-.15.13.28.12.67-.13.82.12s-1,.9-.82,1.42c.54-.12,1.21-.25,1.34.4a1.3,1.3,0,0,1-.67,1c.54,0,1.08-.26,1.21,0s-.8.64-.8,1.16a1.63,1.63,0,0,1,1.08-.12c.26.52-1,.9-1.08.9.41.65,2.14.52,2.94.14C68.48,68,70,68,70,68.11a2,2,0,0,0-.67,1.54,1.83,1.83,0,0,1-1.88,2.2c-.8,0-1.6-.12-1.88-.9s-.8-.77-1.34-.39a1.73,1.73,0,0,0-2.14,1c.54-.13,2.14.39,1.21,1.3-.67,0-1.34.39-1.47,1.54,2.94-.77,2.55,1,.54,1.57,1.19,1,1.73.65,2.81.25a.41.41,0,0,1,.39,0c.83.34.84-.69,1.08-.88a.32.32,0,0,1,.36,0,.27.27,0,0,1,.09.1c.16.57-.3.8,0,.92.87.13,1.52-1,1.59-1.89a1.11,1.11,0,0,1,.12-.3c.15-.17.36-.4.56-.4.54-.13,1.08.91,3.22.26,0-.12-.28-.39-.13-.52.4-.12.8-.25,1.19-.39.41-.38,1.08-.25,1.49-.65-.14,0-.41-.13-.41-.25s.94-.13.81-.4a.43.43,0,0,1-.27-.12c-.27-.13,1.89-1,1.89-1.3-.15,0-.82-.78-.54-.9a2.33,2.33,0,0,0,1.21-.65c.39-.12,3.07-.92,4.15-1.3,0,.91.1,1.37.48,1.7a2.49,2.49,0,0,0,1.12.5c.8.13,1.62-.13,2.55,0s.8,1.17-.13,1.42a5.93,5.93,0,0,1-1.62.15,1.68,1.68,0,0,1-1.47-.79,1.21,1.21,0,0,0-.43-.3,8.92,8.92,0,0,1-1-.42c-.33-.23-.46-.83-1-.83a.89.89,0,0,0-.67.25,1.44,1.44,0,0,0-2,1.3.85.85,0,0,1,1.27.37s0,.09,0,.21-.13.29-.23.21c-1.21-.65-2.14,1-1.73,1.42a1.2,1.2,0,0,1,1.47,0c.26.13.26.38.26.65-.8.25-1.21.52-1.47,1.82,0,.21.12.12.12.12a3,3,0,0,1,2-.52,1.06,1.06,0,0,0,1.34.25c.56-.39,1.08-1.18,1.33-1.28.09,0,.19-.1.28,0a.72.72,0,0,1,0,.44,1.4,1.4,0,0,1-.67.67c0,.13.26.31.67.31A2,2,0,0,0,83.64,75c.08-.06.13,0,.13,0s0,0,0,.13-.27.52-.17.52a1.25,1.25,0,0,0,1.49-.52c.26.27.39.65.8.79a1.36,1.36,0,0,1,.54-1.17c0,.25.39,1.3.67,1a2.2,2.2,0,0,1,.26-.66.62.62,0,0,1,.17-.15c.15,0,.4.94.76.81A5.13,5.13,0,0,1,89,74.59a5.08,5.08,0,0,0,1.88.25,2,2,0,0,1-.67-1.55c0-.52.68-.67,1-1a1.19,1.19,0,0,0,.37-.91c-.13-.52-.8-.79-1.21-1.17-.52-.53-.13-1.36-.1-1.43a.39.39,0,0,1,.1-.14c.67.52,1.21.92,1.75,1.3a3.19,3.19,0,0,0,2.42.52c.93-.12,2.81,0,2.81,1,0,.52-.67,1.3-1.21,1.17s-.41-1-.93-1.17c-.28-.12-.67.13-1,.38a1.83,1.83,0,0,0-2.55,1.05c0,.25.28.12.41.12a1.78,1.78,0,0,1,1.6.4c0,.12-.13,0-.52.64a2.25,2.25,0,0,0-1.34,2.07c0,.13,0,.13.13.13a4.23,4.23,0,0,1,2.14-.65.79.79,0,0,1,.13.52,3.64,3.64,0,0,1-1.6.4c-.13,0-.11.17,0,.25a2.5,2.5,0,0,0,3,.25c1.2.15,1.74-.77,1.33-1.54a.18.18,0,0,1,.13-.25c.67-.15,1,.77.82,1.42.7.23,1.38-.76,1.47-1.3a3,3,0,0,0,2.28-.92,1.16,1.16,0,0,1-.7-.24c-.1-.1-.18-.14-.13-.23s.88-.47,1.1-.68c0-.14-.27-.27-.27-.39s.8-.4.8-.78c0,0-.53,0-.53-.13A7.3,7.3,0,0,0,103.21,70.7ZM64.19,56c0,.06,0,.08,0,.08-.38,0-.75-.91-.63-1.05s.15.39.82.52A3.26,3.26,0,0,1,64.19,56Zm-.81,17.76a.22.22,0,0,1-.1,0c-.32-.09-.48-.07-1,.18.13-.52.93-.79,1.06-.65Zm15.29-1.49c0,.11-.07.09-.17,0l-.2-.07a1.12,1.12,0,0,0-.85,0,1.1,1.1,0,0,1,1.22-.52C78.8,71.75,78.54,71.73,78.67,72.25Zm.26,2.19a2.74,2.74,0,0,0-1.19.27,1.38,1.38,0,0,1,1.12-.79c.07,0,.07,0,.07.07a.62.62,0,0,0,.15.45Zm13.4,1c0-.25.41-1,.82-1a2,2,0,0,0,.26.8C93.54,75.36,92.61,75.36,92.33,75.49ZM83.9,54.63c.8-.77,2.27-1.17,2.27-1.94.12-1-1-1.12-1.06-1.17.39-.26,1.34.12,1.6.64.13.13.13-.9-.13-1.42a.66.66,0,0,1,.28.1,1.83,1.83,0,0,1,.65,2.49c0,.1.17.28.28.13.5-1,1.79-.91,2.73-1.26l.12,0a.12.12,0,0,1,.09.12,1.85,1.85,0,0,0-.51.49.07.07,0,0,0,0,.09c0,.07.15.07.27.07a9.89,9.89,0,0,0,2.81-.65c0,.13-.28.77-2.81,1.42-.54.79.39,1.44.26,1.57a.85.85,0,0,1-1.08-.92c0-.11,0-.12-.09-.13s-.08.05-.1.08c-.67.91.62,2.14,1.53,2.39v.12a1.13,1.13,0,0,1-.39,0c-2.72-.5-2.18-2.57-4.46-2.48a1.13,1.13,0,0,0-.37.06,3.09,3.09,0,0,0-1.87,1.78A1.89,1.89,0,0,0,85,58.12c1.88.52,3.35-.38,5-1a2.05,2.05,0,0,0,2-.27s-.54-.12-.67-.38h.22c.87-.14,1.25-.41,1.12-1.42a2.16,2.16,0,0,1,1.47,1c.41,0-.26-1.17-.41-1.42.82.25,1.49.38,1.89,1.3.4,0-.27-1.7-.14-1.57,1.34.65,1.21,1.82,1.34,1.69.41-.52.13-1,.26-1.42.8.37,1.46.88,1.11,1.62a.2.2,0,0,0,0,.13.13.13,0,0,0,.11.06c.28,0,.67-.79.67-.91a1.64,1.64,0,0,1,.41,1.69c0,.1-.1.12-.12.19a.11.11,0,0,0,0,.09c.12.08.25,0,.36,0,.67-.38.54-1.17,1-1.42.37,1.36.15,2.13-1.16,2.54a.69.69,0,0,0-.33.18,2.74,2.74,0,0,1-.27,1.82,3.26,3.26,0,0,1-2.14,1.81,6.87,6.87,0,0,1-5.1-.39,4.79,4.79,0,0,1-.39-.38c1.73.5,6.29.77,7.09-1.69.67-1.69-.93-2.85-2.27-3-2.81-.25-5.23.92-8.58,1.95-1.6.39-4.43.26-4.43-1.95A2.37,2.37,0,0,1,83.9,54.63ZM89.13,57a7.87,7.87,0,0,1-2.83.79c-1.47,0-1.73-.65-1.73-1.3S85.91,54.5,86.84,55,88.18,56.44,89.13,57Zm-6.44,1.3.13-.13c.67,1.42,2.29,1.57,3.76,1.3,2.68-.38,6.29-1.82,8.58-1.82.8,0,2.68.39,2.68,1.56A2,2,0,0,1,97,60.84a8.86,8.86,0,0,1-3.61.65A5.71,5.71,0,0,1,90.53,61a4.29,4.29,0,0,0-.55-.4,3.19,3.19,0,0,0-1.26-.23c-1.88,0-4,1-5.62,1C82.82,61.36,82.56,59,82.69,58.25Zm-.13-1c0,.13,0,.13-.13.13s-.41-.13-.54-.65a1.68,1.68,0,0,0-1.21-1.05c.13-.25,0-.5,0-.77a1.1,1.1,0,0,1,1.08.13c.39.27.13.92.67,1.94C82.43,57.09,82.56,57.09,82.56,57.22Zm-5,7.38a2.68,2.68,0,0,1-1.06-1.42c-.14-1.17.39-2.34-.14-3.49,0-.15-.27-.4,0-.4a3,3,0,0,0,.68-.39c.52.52.52,2.21.52,2.73A5.54,5.54,0,0,0,77.59,64.6Zm-1.73,2.07c-1-.13-1.22-1.42-1-3,.14-1.17.81-1.94.67-3.37.14,0,.41-.39.41-.64.93,1.94-.94,4.39.67,6-.94.25-1.21-.91-1.21-.65A2.49,2.49,0,0,0,75.86,66.67Zm-1.34.52c-.81-.77-1-2.59-1-3.62a11,11,0,0,1,.82-2.73.14.14,0,0,0,.14.14c.39,0,.39-.14.79-.39C75.31,63.05,73.84,62.66,74.52,67.19ZM73.17,64A3.27,3.27,0,0,1,70,65.89c3.89-2.32,2.27-4.26,3.22-5.7.27-.13.39-.5.8-.5,0,.5.41.77.26,1A13.67,13.67,0,0,0,73.17,64ZM73.44,66a2.2,2.2,0,0,0-.67.79s-.4-1-.14-1.56a2.45,2.45,0,0,0,.54-.65C73.3,65,73.3,65.64,73.44,66Zm-3.9-1.55c1.5-1,1.88-2.07,3-3.23A3.74,3.74,0,0,1,72,63.43C71.42,64.22,70.08,64.35,69.54,64.47Zm7.65-7.12c-.12,0-.12,0-.27.12,0,.4-1.06.13-1.2,0V57c.14-.13.27.4.53.4s.28,0,.54-.26c.13,0,0-.14,0-.14a1.59,1.59,0,0,1-.13-1.55h.26c.27.25,0,.78.27.9s.26.27.4.27c.41-.13.15-.52.28-.92a1.15,1.15,0,0,1,.8-.37.44.44,0,0,0,.13.37c0,.15.41.28.13.4a4.6,4.6,0,0,0-.52,1.42,11.8,11.8,0,0,1-2.16,1.3c-.13-.13,0-.38-.13-.78a1.84,1.84,0,0,0,.8-.12c.15,0,.53.12.67-.13S77.45,57.22,77.19,57.35Zm-2.14,2.07c.26-.38.53-1.68.67-1.43.53,1-.67,2.34-.94,2.2s-.55-1.55.27-2.32c0-.13.13,0,.13,0a6.47,6.47,0,0,0-.27,1.55Zm1.34-2.85c.14.25.27.38,0,.52,0,0-.14.13-.14,0l-.39-.39c-.28-.26-.55,0-.81,0v-.26c.67-.14.94-.64,1.2-1.16h.14C76.53,55.4,76,56.05,76.39,56.57ZM78.8,55c-.39-.13-1.61.39-2.14,0,.13-.38.53-1,1.08-1,.39-.12,1.06.38,1.19.78a.43.43,0,0,0,.28-.13,1,1,0,0,1,.8.25c.13.13.13.27,0,.52s-.67.65-.93.13C78.93,55.4,79.08,55.15,78.8,55Zm-2.41-.13c-.4-.12-1.61-1.29-1.75-1.29a.73.73,0,0,1-.62.51.35.35,0,0,1-.3-.05.87.87,0,0,1,0-1.18c0-.08.3-.13.41-.13s.39.13.56.47a3.22,3.22,0,0,1,1.61.38c.28,0,.41.27.41.52S76.53,54.76,76.39,54.88ZM74,55c0-.13-.13-.51.26-.65a.67.67,0,0,0,.41-.25c.14,0,.27.25.41.39-.14.38-.53.65-.41,1a.51.51,0,0,0,.27.12,1,1,0,0,0,.67-.64h.14a.14.14,0,0,1,.14.14c0,.13-.14.38-.14.5-.14.28-.54.4-.67.53s-.41.12-.41.26a1.74,1.74,0,0,0,.41.51c.13.14.26,0,.4,0s-.14.27-.14.52c-.13,0-.4-.12-.53-.12a.63.63,0,0,1-.26-.4.71.71,0,0,0-.14-.51H74c-.13.13-.13.13-.13.26s0,.25.13.25.26.27.41.4.53.25.26.52c-.12,0-.12.12-.26.25s-.15-.13-.15-.25a14.31,14.31,0,0,1-.79-1.3C73.56,56.05,73.84,55.53,74,55Zm3.48,3.76c-.12,0,.55-.26.68-.38a4.63,4.63,0,0,1,.67,2.32,4.47,4.47,0,0,1-.13,2.34c-.93-.77-.54-2.07-.8-3.11C77.74,59.54,77.59,59.16,77.45,58.77Zm1-.65c.13,0,.13,0,.26-.13s.26-.52.26-.39a3.82,3.82,0,0,1,.95,2.59,6.88,6.88,0,0,0,.67,1.57,3.15,3.15,0,0,1-1.08-.65A19.63,19.63,0,0,0,78.41,58.12Zm.8-1c-.13,0,.13-.52.13-.52s.26,0,.41.13c1.34,1.17.67,3.36,2,4.54.13.25-.82,0-1.08-.4C79.88,59.69,80.27,58.77,79.21,57.09Zm1.6.78A3.57,3.57,0,0,0,79.6,56.3c.82-.12.82-.25.82-.25a1.41,1.41,0,0,1,1.19.77c.41,1.43.15,2.22.67,4.29C81.48,61,81.21,58.77,80.81,57.87Zm1.47-3.51c0,.09-.13.14-.13.14-.54.26-.94-.14-1.47.13-.14.1-.13-.13-.26-.27a1,1,0,0,1-.41-.13A1.88,1.88,0,0,1,82.28,54.36Zm0-1.67c-.12.35-.36.83-.73.89l-.21,0a2.93,2.93,0,0,0-1.74.5c-.13,0-.13-.13-.26,0s-.48-.2-.41-.25c1.34-1.3,2-1,3.22-1.3A.13.13,0,0,0,82.28,52.69Zm-2.74-.33a9.06,9.06,0,0,1,1.15-.28,6.74,6.74,0,0,0,1.33.08c.11,0,.13,0,.13,0-.26.4-.67.26-1.34.4a2.53,2.53,0,0,0-2,1.15c-.26,0-.26-.12-.39-.12A1.72,1.72,0,0,1,79.54,52.36Zm-.46-1,.32,0,.35,0c0,.13-.07.18-.15.25a7.23,7.23,0,0,0-1.73,1.82h-.68A2.22,2.22,0,0,1,79.08,51.39Zm-1.89.77c-.12.4-.27.65-.4,1.05,0,.09-.13-.15-.54-.27a6.48,6.48,0,0,1-.67-2.2A5.65,5.65,0,0,1,77.19,52.16Zm-1.33.65h-.81a7.17,7.17,0,0,1-.82-1.69A2.06,2.06,0,0,1,75.86,52.81Zm-1.34-.39c-.14.14-.29-.26-1,0-.12,0-.26,0-.52-.26s-.27-.12-.54-.52A2.06,2.06,0,0,1,74.52,52.42Zm-1.35.14c-.13.13-.27.38-.4.5a2.36,2.36,0,0,1-1.22-.37C72.63,51.91,73.3,52.42,73.17,52.56ZM71.42,54a4,4,0,0,1,1.35-.52V54a8,8,0,0,0-1.48.25C71.11,54.27,71.3,54,71.42,54Zm-.26,1.38a4.56,4.56,0,0,1,1.61-.94.78.78,0,0,1,.19-.06c.21,0,.23.15.34.27a.19.19,0,0,1,0,.23c0,.15-.09.18-.11.19a19.69,19.69,0,0,1-1.94.35C71.16,55.45,71.11,55.41,71.16,55.36Zm2-.08a4.78,4.78,0,0,1-.4,1c-1.07.27-.8,1.44-2.15,1.69a.53.53,0,0,1-.26,0A3.65,3.65,0,0,1,73.17,55.28Zm0,2.19c-1.2.78-1.2,2-2.55,1.69,0,0-.11,0,0-.08,1.49-1.25,1.39-2,2.3-2.38A1.83,1.83,0,0,0,73.17,57.47Zm.13.27a1.89,1.89,0,0,1,.67.9v.52c0,.13-.26.13-.41.13-1.59.65-1.06,2.34-3.07,3.37h-.13C71.7,61.49,71.55,59,73.3,57.74Zm-6.62-5a1,1,0,0,0-.49-.42,1.11,1.11,0,0,1,1.34.52c-.2,0-.41.16-.62.1A.36.36,0,0,1,66.68,52.71Zm-2.63.62a1.71,1.71,0,0,1,1.21.26s-.07.1-.15.22-.23.37-.26.3C64.46,53.33,63.79,53.46,64.05,53.33Zm4.58,13a1.07,1.07,0,0,0-.06-.17c0-.05-.1-.05-.22,0a2.79,2.79,0,0,1-2.16.51c1.34-.78,1.08-.9,1.75-1.94-.26-.38-1.07.52-1.6.39.24-.11.37-.35.6-.77,0,0,.12-.25.14-.31a1.21,1.21,0,0,1,.73-.74c-.28-.25-1.75.78-1.75.78.4-1.27,1.06-1.54,1.2-2.16a.45.45,0,0,0,0-.12s0,0,0,0a.19.19,0,0,0-.16.06,2.79,2.79,0,0,1-2.23,1.11c.15-.64,2.23-1,2.41-2.16,0-.05,0-.07,0-.08s-.41.43-.89.55a4.29,4.29,0,0,1-1.08.12,13.49,13.49,0,0,1,1.34-1.3c-.54,0-1.21.27-1.75.27-.08,0-.06,0,0-.09a.26.26,0,0,1,.09-.09c.8-.6,1.69-.48,1.69-1.25a.69.69,0,0,0-.31-.59.37.37,0,0,0-.21-.06c-.43,0-1.21,0-1.08-.51.8.25,1.47-.14,1.19-.92-.23-.47-.69-.4-1.18-.28-.16.05-.22,0-.25,0-.34-.27-.09-.84.16-1a.94.94,0,0,1,.18-.06c.31-.11.56.33.78,0a.76.76,0,0,0,.06-.2c0-.75-.81-.42-.81-.79a1.29,1.29,0,0,1,1.21-.79c.37,0-.19.69.5.78a.6.6,0,0,0,.43-.2c.47-.47-.26-.56-.26-.7,0-.48,1-.4,1.28-.19s.32.34.12.52a1.83,1.83,0,0,0-.55.79,11.87,11.87,0,0,0,0,4.32c.07.17.11.21.15.24.25.25.6.18.83.42A6.51,6.51,0,0,1,70.21,62a6.69,6.69,0,0,1-.93.92c0,.25.41.25.67.37s-.79.92-1.34,1.17v.13c.41.39.93.13,1.34.39a7.53,7.53,0,0,1-.79,1.3c.12.25,1.46-.13,1.73,0C71,67.28,68.89,67.45,68.63,66.29Zm-5,5.09a1.93,1.93,0,0,0-.88,0,1.17,1.17,0,0,1,1.17-.52s0,0,0,0a2,2,0,0,1-.21.39S63.65,71.39,63.59,71.38Zm.51,4c.2,0,.38.41.39.57s0,.1-.06.11a1.8,1.8,0,0,1-1.31.08,1.75,1.75,0,0,0,.9-.72S64.08,75.36,64.1,75.37Zm14.16-5.32c.28-.4.95-.64,1.21-.27-.09.13-.13.36-.24.5a.11.11,0,0,1-.15,0A2,2,0,0,0,78.26,70.05ZM82.43,75a2.43,2.43,0,0,0,.67-1c.1-.17.36,0,.52.12C84,74.32,82.82,75.09,82.43,75Zm7.76-4.13a2.07,2.07,0,0,1,.67.64.49.49,0,0,1-.13.65,1.52,1.52,0,0,0-.54,2.47c-1.47-.27-1.06-1.3-.67-2.22.07-.15,0-.19-.13-.12-.93.9-.67,1.81-1.08,2.59a1.9,1.9,0,0,1,.15-2.2s0-.06-.15,0c-.67.38-1.06,1.55-1.34,2.2-.48-.48-.08-1.73,0-1.82s0-.08-.12,0a4.23,4.23,0,0,0-1.21,2.07c-.52-.38-.39-1-.39-1.55-.4.25,0,1.47-1,1.8a.16.16,0,0,1-.16,0c-.16-.11,0-.23.07-.36a.68.68,0,0,0,.1-.81c-.06-.08-.33-.3-.37-.34a2.19,2.19,0,0,0-1.46-.52,2.55,2.55,0,0,0-1.62,1.15.61.61,0,0,1-.67.15c-.54-.15-1.06-1-.54-1.44.28-.13.41.27.82.14.22-.12.25-.83-.19-.92a.67.67,0,0,0-.39,0c-.25.09-.38.35-.55.2a.25.25,0,0,1-.1-.17c-.09-.39,0-1.21.55-1.24a.27.27,0,0,1,.21.14c.1.18.21.27.32.27.57,0,.56-.38.46-.73,0-.06-.06-.21-.2-.21s-.67.12-.78-.1c-.28-.38.26-1,.67-1s.39.65.93.78a5.32,5.32,0,0,1,1.08.39c.12.08.21.12.26.25.26,1.17,2,1,2.94.9,1.88-.25,3-1.54,1.62-2.44-.8-.53-2-.15-3-.28-1.47-.25-1.73-.9-1.34-1.94.12-.27.78-.43,1-.52s.93-.65.93-.38a12.19,12.19,0,0,0-.6,1.41s-.07.15,0,.2a.18.18,0,0,0,.26.06,8,8,0,0,1,1.86-1.67c.41.9,1.49.9,1.75,0,.67.65,1.53,1.5,1.47,1.67a8.75,8.75,0,0,0-.39,2C89.2,70.41,89.79,70.63,90.19,70.83Zm2.14,1.81c.15-.27,1.08-.91,1.62-.52a2.39,2.39,0,0,0-.28.65A1.55,1.55,0,0,0,92.33,72.64Zm1,4.14a1.5,1.5,0,0,0,1.06-.25l.41.38C94.49,77.18,93.41,77.18,93.28,76.78Zm5.37-1.48a.73.73,0,0,1-.42.83c0-.64,0-.77-.54-1.17-.11-.11.54,0,.87.21A.34.34,0,0,1,98.65,75.3Zm2.78-3.51a2.06,2.06,0,0,1-.9.24c-.48,0-1-.16-1.22,0,.13.51,1.48.38,2.28.38a2.66,2.66,0,0,1-2.41.53s0,.13.26.23a10.88,10.88,0,0,0,1.61.41,3.14,3.14,0,0,1-2.15.13c.14.39,1.22.77,1.75.92a2.47,2.47,0,0,1-1.21.37c-.65,0-2.58-.85-3.17.42a.28.28,0,0,0,0,.25,1.67,1.67,0,0,0,.12.23.61.61,0,0,1-.05.39c-.2.44-.91.4-1.28.16a.61.61,0,0,1-.23-.29.51.51,0,0,1,0-.57c0-.07.16,0,.2,0,.89.11.49-.92-.28-.68-.23.11-.37.33-.67.38a.26.26,0,0,1-.24-.09c-.26-.34-.25-1.12.1-1.2a.2.2,0,0,1,.19.08c.29.35,1,0,.82-.48a.82.82,0,0,0-.14-.23c-.23-.23-.83-.09-.6-.66.13-.27.41-.79.8-.79s.38.39.55.65.4.65.79.65c1.08,0,1.88-1.55,1.49-2.59-.54-1.43-2.28-.91-3.63-1.15-3.44-.52-4.39-2.54-6.49-5.09a1.46,1.46,0,0,0-.19-.16.57.57,0,0,0-.56.06c-1.6.77-2.81,1.42-4.54,2.2-.28.12-.54.25-1,.39.28-.39.8-1.06,1.08-1.44-1.08.51-1.88,1.3-3.35,1.95-.13,0-.28,0-.28-.13a8,8,0,0,0,.67-1.3c-.13-.12-.2,0-.39.13-1.47,1-2.29,1.94-3.63,1.69,0,.25.54.78,1.34,1.05a2.68,2.68,0,0,1-2.4-.15c-.14.65,1.06,1,1.34,1.17-.68.53-2,0-2.69-.25-.13,0,0,.12,0,.12.39.78,2,.91,2.69.91a3.43,3.43,0,0,1-3.36.14c-.28.38,1.06,1.15,1.34,1.29,0,.26-1.47.13-2.42-.64-.13.38,1.08,1.15,1.21,1.29-.52.51-1.63,0-2-.1l-.22-.1s0,0,0,.06c.13.52.8.79,1.34,1A1.93,1.93,0,0,1,69.41,73a3.38,3.38,0,0,0-1.21,1c-.13.26,0,.53-.13.9s-.32.75-.47.8a.28.28,0,0,1-.14-.06c-.13-.14,0-.75-.19-.86-1.21-.52-1.08.65-1.6,1s-1.34-.64-1.34-.92c0-.1.1-.42.39-.23a.65.65,0,0,0,.15.1.39.39,0,0,0,.16,0c.23-.06.23-.26.23-.38,0-.38-.13-.64-.67-.5-.11,0-.12.24-.34.27,0,0-.12.05-.2,0-.39-.39-.39-1.29-.13-1.42s.54.38.93.25.28-.9,0-1-.61.31-.87.07c0,0,0-.15,0-.19.16-.49.52-1,.76-1s.4.67.84,1a6.37,6.37,0,0,0,.6.35,3.3,3.3,0,0,0,2.45,0c2.43-1,1.34-2.72,2.15-3.12,1.74-.77.94-1.55,1.61-1.94.13.13.13.77.53.92.14-.79.27-1.3,1.07-1a3.74,3.74,0,0,0,.94,1c.14,0,.14-.92.14-1.3.67.51,1.74.51,1.61.26S76,66.29,76,66c.67.4,1.75.14,1.6-.13s-.26-.25-.26-.37.67-.27.93-.27c0-.52-.52-1.17,0-1.82.41.27.54.52,1.08.52a2.22,2.22,0,0,1,.13-1.29,19.75,19.75,0,0,0,3-.13c1.73-.4,3.07-1,4.95-1.42.54-.13.93-.27,1.47-.4a2.66,2.66,0,0,1,1.93,1.23c.11.16.45.79.57,1A7.06,7.06,0,0,0,93,64.47,3.8,3.8,0,0,1,94.34,66a10.37,10.37,0,0,1,.59,1.48,2,2,0,0,0,.72.87c1.38.7,2.62-1,3.25-.41a.69.69,0,0,1,.11.17.62.62,0,0,0,.1.16.41.41,0,0,0,.2.07,5,5,0,0,0,2.41-.52,3.72,3.72,0,0,1-2.41,1.57,4.86,4.86,0,0,0,2.55-.4,2.27,2.27,0,0,1-2.42,1.17l-.07,0s0,.1.26.19a12.23,12.23,0,0,0,1.83.21c0,.27-2,.27-2,.64,1.61-.25,1.75.27,2.42,0C102,71.37,101.76,71.61,101.43,71.79Z" transform="translate(-8.67 -18.87)"/><g id="Blue"><path class="cls-21" d="M83.62,74.06c-.16-.09-.42-.29-.52-.12a2.43,2.43,0,0,1-.67,1C82.82,75.09,84,74.32,83.62,74.06Z" transform="translate(-8.67 -18.87)"/><path class="cls-21" d="M66.68,52.71a.36.36,0,0,0,.23.2c.21.06.42-.1.62-.1a1.11,1.11,0,0,0-1.34-.52A1,1,0,0,1,66.68,52.71Z" transform="translate(-8.67 -18.87)"/><path class="cls-21" d="M94,72.12c-.54-.39-1.47.25-1.62.52a1.55,1.55,0,0,1,1.34.13A2.39,2.39,0,0,1,94,72.12Z" transform="translate(-8.67 -18.87)"/><path class="cls-21" d="M64.85,54.11c0,.07.15-.13.26-.3s.17-.22.15-.22a1.71,1.71,0,0,0-1.21-.26C63.79,53.46,64.46,53.33,64.85,54.11Z" transform="translate(-8.67 -18.87)"/><path class="cls-21" d="M75.05,57.87c-.82.77-.53,2.32-.27,2.32s1.47-1.15.94-2.2c-.14-.25-.41,1-.67,1.43h-.14a6.47,6.47,0,0,1,.27-1.55S75.05,57.74,75.05,57.87Z" transform="translate(-8.67 -18.87)"/><path class="cls-21" d="M78.86,73.92a1.38,1.38,0,0,0-1.12.79,2.74,2.74,0,0,1,1.19-.27h.15a.62.62,0,0,1-.15-.45S78.93,73.92,78.86,73.92Z" transform="translate(-8.67 -18.87)"/><path class="cls-21" d="M63.88,70.83a1.17,1.17,0,0,0-1.17.52,1.93,1.93,0,0,1,.88,0c.06,0,.1-.1.12-.13a2,2,0,0,0,.21-.39S63.92,70.82,63.88,70.83Z" transform="translate(-8.67 -18.87)"/><path class="cls-21" d="M64.1,75.37s-.07,0-.08,0a1.75,1.75,0,0,1-.9.72,1.8,1.8,0,0,0,1.31-.08s.07-.07.06-.11S64.3,75.42,64.1,75.37Z" transform="translate(-8.67 -18.87)"/><path class="cls-21" d="M79.23,70.28c.11-.14.15-.37.24-.5-.26-.37-.93-.13-1.21.27a2,2,0,0,1,.82.26A.11.11,0,0,0,79.23,70.28Z" transform="translate(-8.67 -18.87)"/><path class="cls-21" d="M62.32,73.94c.48-.25.64-.27,1-.18a.22.22,0,0,0,.1,0v-.45C63.25,73.15,62.45,73.42,62.32,73.94Z" transform="translate(-8.67 -18.87)"/><path class="cls-21" d="M78.67,71.73a1.1,1.1,0,0,0-1.22.52,1.12,1.12,0,0,1,.85,0l.2.07c.1,0,.18.07.17,0C78.54,71.73,78.8,71.75,78.67,71.73Z" transform="translate(-8.67 -18.87)"/><path class="cls-21" d="M63.51,55c-.12.14.25,1.1.63,1.05,0,0,0,0,0-.08a3.26,3.26,0,0,0,.14-.45C63.66,55.4,63.66,55,63.51,55Z" transform="translate(-8.67 -18.87)"/><path class="cls-21" d="M93.28,76.78c.13.4,1.21.4,1.47.13l-.41-.38A1.5,1.5,0,0,1,93.28,76.78Z" transform="translate(-8.67 -18.87)"/><path class="cls-21" d="M93.15,74.44c-.41,0-.82.8-.82,1,.28-.13,1.21-.13,1.08-.25A2,2,0,0,1,93.15,74.44Z" transform="translate(-8.67 -18.87)"/><path class="cls-21" d="M98.56,75.17c-.33-.23-1-.32-.87-.21.54.4.54.53.54,1.17a.73.73,0,0,0,.42-.83A.34.34,0,0,0,98.56,75.17Z" transform="translate(-8.67 -18.87)"/></g><path class="cls-6" d="M91.44,23.17c-2.4.13-3.53-1.43-5.61-1.47a5.67,5.67,0,0,0-3.63,1.45,5.63,5.63,0,0,0-3.62-1.45c-2.08,0-3.21,1.6-5.61,1.47a5.72,5.72,0,0,1-.9-.13v8.14a4.78,4.78,0,0,0,.9.12c2.4.14,3.53-1.42,5.61-1.46a5.58,5.58,0,0,1,3.6,1.43v0h0v0a5.62,5.62,0,0,1,3.61-1.43c2.08,0,3.21,1.6,5.61,1.46a4.78,4.78,0,0,0,.9-.12V23A5.72,5.72,0,0,1,91.44,23.17Z" transform="translate(-8.67 -18.87)"/><rect class="cls-22" x="70.34" y="31.97" width="12.77" height="0.92" transform="translate(144.79 45.98) rotate(180)"/><rect class="cls-22" x="65.85" y="27.45" width="9.93" height="0.95" transform="translate(34.22 79.87) rotate(-90)"/><rect class="cls-22" x="72.62" y="13.1" width="12.77" height="0.92"/><rect class="cls-22" x="88.63" y="27.45" width="9.93" height="0.95" transform="translate(56.99 102.64) rotate(-90)"/><polygon class="cls-22" points="60.08 10.88 61.72 9.96 61.72 11.79 60.08 10.88"/><polygon class="cls-22" points="60.08 7.22 61.72 6.31 61.72 8.13 60.08 7.22"/><polygon class="cls-22" points="86.98 10.88 85.34 9.96 85.34 11.79 86.98 10.88"/><polygon class="cls-22" points="86.98 7.22 85.34 6.31 85.34 8.13 86.98 7.22"/><path class="cls-5" d="M92.34,22.17l-.2,0a4.85,4.85,0,0,1-.75.11,5.44,5.44,0,0,1-2.7-.68,7,7,0,0,0-2.85-.78h-.09a6.3,6.3,0,0,0-3.55,1.23,6.27,6.27,0,0,0-3.54-1.23h-.1a7,7,0,0,0-2.85.78,5.37,5.37,0,0,1-2.69.68,4.85,4.85,0,0,1-.75-.11l-.2,0v.41l.1,0a5.93,5.93,0,0,0,.83.12A5.84,5.84,0,0,0,75.89,22a6.56,6.56,0,0,1,2.68-.76h.09a5.92,5.92,0,0,1,3.42,1.24l.12.08.13-.08a5.9,5.9,0,0,1,3.42-1.24h.09a6.56,6.56,0,0,1,2.68.76,6,6,0,0,0,2.62.71h.27a5.79,5.79,0,0,0,.82-.12l.11,0Z" transform="translate(-8.67 -18.87)"/><path class="cls-2" d="M111.31,20.18V80.52a5.51,5.51,0,0,1-3.17,4.92L82.21,97.74,56.26,85.35a5.43,5.43,0,0,1-3.16-4.91V20.18h58.21m1.35-1.31H51.75V80.44a6.78,6.78,0,0,0,3.91,6.09L82.2,99.2l26.54-12.59a6.76,6.76,0,0,0,3.92-6.09V18.87Z" transform="translate(-8.67 -18.87)"/><path class="cls-20" d="M81.28,109.65a16,16,0,0,0-1.84,0c-.07,0-.13-.12-.13-.12a1,1,0,0,0,.34-.62c0-.58,0-1.13,0-1.71,0-.17-.21-.33-.37-.54a.08.08,0,0,1,.1-.06c.6,0,1.32.08,1.84,0,.18,0,.36,0,.47.1s.16.46.08.67c-.28.07-.27-.18-.39-.3a1.83,1.83,0,0,0-1.12-.17c-.07,0-.1,0,0,.15s0,.48,0,.72c.32,0,.72.1.91-.16.09,0,.09,0,.17,0,.09.21,0,.24,0,.35a.48.48,0,0,1-.1.45c-.15-.06-.18-.4-.47-.33a1.37,1.37,0,0,0-.52,0,2.75,2.75,0,0,0,0,1.07,1,1,0,0,0,1.21,0c.13-.12.16-.42.34-.45s.09.21.09.21c-.11.28-.2.74-.56.77Z" transform="translate(-8.67 -18.87)"/><path class="cls-20" d="M83.44,109.62a1.39,1.39,0,0,1-.58-.05c0-.1,0-.14.16-.18a7.11,7.11,0,0,0,.14-2.52,1,1,0,0,0-.68.17c-.12.12-.11.28-.31.38-.23-.08,0-.35-.09-.45s0-.24,0-.32a13.78,13.78,0,0,1,2.59,0c.26,0,.14.29.19.39s.1.37-.1.47c-.23-.09-.17-.24-.29-.36s-.42-.24-.6-.22-.13.11-.13.11a8.67,8.67,0,0,0,0,2.16c0,.17.24.25.26.42s-.36,0-.61,0Z" transform="translate(-8.67 -18.87)"/><path class="cls-20" d="M77.58,104.86c-.24,0-.49.26-.52.49-.27.41-.43.71-.7,1.13s-.48,1.15-1.07,1.31c-.34.07-.46.16-.69,0-.77-.08-1.94-.76-2-1.42a3.07,3.07,0,0,1,.64-1.58c.3-.52.8-1,.66-1.7-.09-.11-.2-.13-.08-.22s.23-.08.33,0,.66.28.86.43.44.15.31.35a1.61,1.61,0,0,0-.74.36,10,10,0,0,0-1.16,2.18c-.14.32.14.67.35.92a2.64,2.64,0,0,0,1,.32c.81,0,1.31-1.39,1.62-2a1.56,1.56,0,0,0,.14-1.19c-.1-.11,0-.1,0-.1.44.15.75.29,1.19.45,0,.12,0,.23-.13.22Z" transform="translate(-8.67 -18.87)"/><path class="cls-20" d="M73.17,102.72a4,4,0,0,0-1.34,1.71,6.68,6.68,0,0,0-.73,1.36c-.13.09-.15.2-.27.29a.72.72,0,0,1-.44-.16.36.36,0,0,1-.08-.22,12.52,12.52,0,0,1-.11-1.89c-.07-.43-.12-1-.16-1.54-.1-.14-.06-.45-.18-.36a6.27,6.27,0,0,0-.87,1.45,3,3,0,0,0-.37,1.27c.1.12.19.25.07.34s-.33,0-.44-.15a2,2,0,0,0-.75-.32c0-.21.13-.2.25-.29.47-.07.67-.81.94-1.11a13.49,13.49,0,0,1,.73-1.34c.12-.1.25-.31.16-.43-.33-.14-.58,0-.81.13s-.23,0-.11-.12.15-.2.38-.28a1.21,1.21,0,0,1,.93-.13c.32.14.65.3.62.51a8,8,0,0,1,.34,2.89c.08.24,0,.33,0,.56a8.85,8.85,0,0,0,.86-1.55c.06-.44.35-1,0-1.31a.11.11,0,0,1,.12-.1,5.26,5.26,0,0,1,1.4.71c0,.1-.12.09-.23.08Z" transform="translate(-8.67 -18.87)"/><path class="cls-20" d="M67,104.23c-.33-.14-.86-.43-1.29-.58-.13,0-.22-.13-.1-.23a.15.15,0,0,1,.23,0c.5-.28.42-.73.48-1.17-.42-.26-1-.53-1.28-.69a1.78,1.78,0,0,0-.62,1.36c-.13.2-.33,0-.45,0l-.63-.41a.41.41,0,0,1-.32-.14c.14-.2.33,0,.59-.15a26.74,26.74,0,0,0,2.55-2.36c.12-.09-.33-.14-.55-.17s-.37.18-.46.06v-.11a1.74,1.74,0,0,1,1.62-.26c.54.27.57.95.51,1.49,0,.32-.24,2-.31,2.59a1.74,1.74,0,0,0,.14.69.1.1,0,0,1-.12.09Zm-.73-2.51a2,2,0,0,1-1-.42,10.06,10.06,0,0,1,1.16-1.08,6.91,6.91,0,0,1-.18,1.5Z" transform="translate(-8.67 -18.87)"/><path class="cls-20" d="M64.53,98.91c-.22-.15-.32-.26-.55-.18a3.64,3.64,0,0,0-.7,1.14c-.32.62-.61,1.25-.9,1.76,0,.11.19.36,0,.56l-.23,0a4,4,0,0,0-1-.54c-.1-.12-.21-.14-.09-.23a1.38,1.38,0,0,0,.89-.68c.28-.52.7-1.13,1-1.75h-.11a14.57,14.57,0,0,0-2.73,1.79.15.15,0,0,1-.21,0,7.8,7.8,0,0,1,.11-1.86c-.1-.12,0-1.2-.09-1.33a4.76,4.76,0,0,0-.86,1.56,1.11,1.11,0,0,0-.26,1.28s0,.12-.12.11c-.43-.27-.87-.43-1.29-.69v-.12c.57,0,1-.76,1.4-1.16s.69-1,1-1.65c0-.1-.31-.26-.42-.27s-.47.07-.7.15c-.09-.12-.08-.24,0-.22a1.06,1.06,0,0,1,1.17-.3,1.46,1.46,0,0,1,.93.86c0,.89-.1,1.75-.09,2.63l0,.11a13.58,13.58,0,0,1,2.71-1.69c.58,0,.78.09.88.22s.31.25.3.36-.12.09-.13.21Z" transform="translate(-8.67 -18.87)"/><path class="cls-20" d="M106.57,99.73a22.5,22.5,0,0,0-2.24,1.14.52.52,0,0,1-.24-.07,1.41,1.41,0,0,0,0-1c-.43-.69-.74-1.38-1.16-2.06-.14-.2-.48-.26-.82-.42a.1.1,0,0,1,.09-.13c.7-.4,1.64-.74,2.24-1.12.21-.13.4-.27.62-.19.16.29.5.47.55.77-.29.25-.45,0-.67-.12a2.58,2.58,0,0,0-1.46.49c-.11,0-.09.13,0,.22.14.29.31.59.45.89.42-.17.94-.34,1-.77.1-.11.1-.11.2-.12.25.18.15.3.28.38s.27.39.19.61c-.22,0-.49-.36-.79-.11s-.4.16-.59.39a3.76,3.76,0,0,0,.72,1.28,1.3,1.3,0,0,0,1.41-.81c.08-.23-.08-.62.11-.76s.25.19.25.19c.06.41.25,1-.15,1.27Z" transform="translate(-8.67 -18.87)"/><path class="cls-20" d="M102.24,101.79a2.17,2.17,0,0,1-.73.3c-.12-.09,0-.21.08-.32,0-.75-1-2.09-1.51-3.07a1.17,1.17,0,0,0-.69.62c-.08.21,0,.4-.13.64-.32,0-.28-.39-.39-.48s-.15-.3-.17-.4a18.83,18.83,0,0,1,3-1.65c.31-.16.37.26.48.35s.37.38.2.62c-.33,0-.36-.17-.58-.25s-.66,0-.87.11-.07.22-.07.22a12.38,12.38,0,0,0,1.44,2.56c.13.19.46.15.59.33-.07.23-.4.28-.7.42Z" transform="translate(-8.67 -18.87)"/><path class="cls-20" d="M99.45,103c-1.16-.59-2.24-1.29-3.42-1.88h0a5.83,5.83,0,0,0,1.55,2.43c0,.21.33.07.25.29s-.41.15-.51.27c-.33,0-.49.38-.64.08.2-.86-.45-1.62-.77-2.42a4.36,4.36,0,0,0-.44-.79c-.42.06-.57.6-.63.93-.09.12-.34-.07-.45-.06a.52.52,0,0,0-.68-.22l-.92.43a6.33,6.33,0,0,0,.6,1.19c0,.1.11,0,.11,0,.41-.16.72-.31.79-.63h.1a1.59,1.59,0,0,1,.53.66c-.22,0-.34-.06-.44,0a2.88,2.88,0,0,0-.92.44,6.68,6.68,0,0,0,.71,1.26c.14.21.45,0,.77,0a1.44,1.44,0,0,0,.76-1.56c.12,0,.21-.15.22,0a3.45,3.45,0,0,1,.44.88c0,.22.16.3-.06.33-.81.43-1.43.71-2.24,1.13-.22,0-.31.15-.5.27-.12-.08-.11,0-.12-.08s0-.1,0-.22c.11-.74-.29-1.22-.74-2.21-.13-.19-.59-1.08-.92-1-.1,0-.09.11-.07.21l0,.22c-.12-.1-.33-.08-.54.07l0,.1a2.54,2.54,0,0,0,.49,1.19c.4.58.63,1.4,1.34,1.83.12.09,0,.1-.07.22a4.29,4.29,0,0,0-1,.45c-.25-.17-.06-.42-.09-.62a2.35,2.35,0,0,0-.48-1.09,5.7,5.7,0,0,0-.62-1.3,1.61,1.61,0,0,0-.11.75,15.32,15.32,0,0,0,.1,2.31s-.11,0-.09.12a.23.23,0,0,1-.24-.18c-.71-.43-1.73-1.47-2.54-1.89,0,0,0,.31.14.3a15.76,15.76,0,0,0,1.16,2.16,1.09,1.09,0,0,0,.59.35c-.1,0,0,.1-.09.11a4.08,4.08,0,0,1-.5.29c-.21,0-.5.37-.63.18.26-.56-.17-1.24-.33-1.64-.31-.59-.59-1.08-.88-1.69l-.12,0c-.19.14-.15.44-.21.77-.09.12-.09.12-.21.13a1.51,1.51,0,0,1,0-.73.76.76,0,0,1,.43-.8c.3-.14.82-.31,1.09,0,.72.55,1.24,1.11,2,1.55l.09-.11a12.66,12.66,0,0,1-.07-2.1.86.86,0,0,1,.42-.91.76.76,0,0,1,.65-.08c.09-.11.27-.35.37-.37a24.16,24.16,0,0,1,2.36-1.13l.1,0c.13.19.16.41.39.38a1.65,1.65,0,0,1,.22-.67,1.19,1.19,0,0,1,1.39-.28c.78.22,2.25,1.29,2.81,1.43-.31-.6-.59-1.09-.87-1.58-.25-.17-.51-.56-.85-.62a.1.1,0,0,1-.12-.09c.42-.16.82-.43,1.22-.58.24.07-.06.33,0,.53a14.16,14.16,0,0,0,1,2.19,4.14,4.14,0,0,1,.57,1c.12.1-.39.37-.51.28Z" transform="translate(-8.67 -18.87)"/><path class="cls-2" d="M75.46,26.82a.76.76,0,0,1-.84.69,1.15,1.15,0,0,1-.82-.36.06.06,0,0,1,0-.07l.21-.22a0,0,0,0,1,.07,0,.81.81,0,0,0,.54.22c.2,0,.37-.1.37-.27,0-.41-1.15-.29-1.15-1a.69.69,0,0,1,.75-.66,1.07,1.07,0,0,1,.74.31s0,.05,0,.07l-.19.23a0,0,0,0,1-.07,0,.71.71,0,0,0-.46-.19c-.2,0-.31.1-.31.24C74.31,26.18,75.46,26,75.46,26.82Z" transform="translate(-8.67 -18.87)"/><path class="cls-2" d="M78.16,27.1s0,0,0,.07a1.21,1.21,0,1,1,0-1.73,0,0,0,0,1,0,.07l-.23.24a0,0,0,0,1-.07,0,.86.86,0,0,0-.55-.2.75.75,0,0,0-.75.76.74.74,0,0,0,.75.75.81.81,0,0,0,.55-.2,0,0,0,0,1,.07,0Z" transform="translate(-8.67 -18.87)"/><path class="cls-2" d="M78.94,25.13h.37a0,0,0,0,1,0,.05v2.24a0,0,0,0,1,0,0h-.37a.06.06,0,0,1-.06,0V25.18A.06.06,0,0,1,78.94,25.13Z" transform="translate(-8.67 -18.87)"/><path class="cls-2" d="M81.6,27.12v.3a0,0,0,0,1,0,0H80.27a0,0,0,0,1,0,0V25.18a0,0,0,0,1,0-.05h1.27s.06,0,.06.05v.3s0,.05-.06.05h-.85v.53h.8a0,0,0,0,1,.05.05v.31a0,0,0,0,1-.05,0h-.8v.59h.86S81.6,27.08,81.6,27.12Z" transform="translate(-8.67 -18.87)"/><path class="cls-2" d="M84.37,25.18v2.24a.06.06,0,0,1-.06,0h-.42a.06.06,0,0,1-.06,0l-.93-1.59v1.57s0,0-.06,0h-.37a0,0,0,0,1,0,0V25.18a0,0,0,0,1,0-.05h.43a.06.06,0,0,1,.06,0l.93,1.59V25.18a0,0,0,0,1,0-.05h.37A.06.06,0,0,1,84.37,25.18Z" transform="translate(-8.67 -18.87)"/><path class="cls-2" d="M86.67,25.18v.3a.06.06,0,0,1-.06.05h-.52v1.89a0,0,0,0,1,0,0h-.37a0,0,0,0,1,0,0V25.53h-.53a0,0,0,0,1,0-.05v-.3a0,0,0,0,1,0-.05h1.52A.06.06,0,0,1,86.67,25.18Z" transform="translate(-8.67 -18.87)"/><path class="cls-2" d="M87.39,25.13h.37a0,0,0,0,1,0,.05v2.24a0,0,0,0,1,0,0h-.37a0,0,0,0,1,0,0V25.18A0,0,0,0,1,87.39,25.13Z" transform="translate(-8.67 -18.87)"/><path class="cls-2" d="M90.57,27.47h-.38a.05.05,0,0,1-.06,0L90,27h-.9l-.14.41a.05.05,0,0,1-.06,0H88.5s0,0,0-.06l.84-2.24a.05.05,0,0,1,.06,0h.35a.06.06,0,0,1,.06,0l.84,2.24S90.61,27.47,90.57,27.47Zm-.71-.83-.32-.92-.32.92Z" transform="translate(-8.67 -18.87)"/><path class="cls-3" d="M82.2,46.94l-.73-1.79-1.83.77.8-1.77-1.86-.7,1.86-.71L79.64,41l1.83.77L82.2,40l.73,1.8L84.76,41,84,42.74l1.86.71-1.86.7.8,1.77-1.83-.77-.73,1.79Z" transform="translate(-8.67 -18.87)"/><path class="cls-3" d="M82.15,88.23l-.73-1.8-1.82.77.79-1.76-1.85-.71,1.85-.7-.79-1.77,1.82.77.73-1.79L82.88,83l1.83-.77L83.91,84l1.86.7-1.86.71.8,1.76-1.83-.77-.73,1.8Z" transform="translate(-8.67 -18.87)"/><path class="cls-3" d="M105.13,68.25l-.73-1.8-1.83.78.8-1.77-1.86-.71,1.86-.7-.8-1.77,1.83.77.73-1.79.73,1.79,1.82-.77-.79,1.77,1.85.7-1.85.71.79,1.77-1.82-.78-.73,1.8Z" transform="translate(-8.67 -18.87)"/><path class="cls-3" d="M59.41,68.25l-.73-1.8-1.83.78.8-1.77-1.86-.71,1.86-.7-.8-1.77,1.83.77.73-1.79.73,1.79L62,62.28l-.8,1.77,1.86.7-1.86.71.8,1.77-1.83-.78-.73,1.8Z" transform="translate(-8.67 -18.87)"/><path class="cls-2" d="M40.89,140c0,11-5.54,16.56-15.6,16.56S9.53,152.13,9.53,141.87V131.44a124.2,124.2,0,0,0-.86-13,38.65,38.65,0,0,0,4.25.27,23.61,23.61,0,0,0,3.39-.27c-.54,5.11-.7,11.93-.7,19,0,10.21,1.88,16,11.35,16,10.22,0,10.49-10.16,10.49-18.54,0-7.58-.06-13-.38-16.5a13.07,13.07,0,0,0,2.48.27,9.52,9.52,0,0,0,2.15-.27c-.38,4.08-.75,13.06-.81,21.6" transform="translate(-8.67 -18.87)"/><path class="cls-2" d="M75.93,136.68c-.11,5.74-.05,14.49,0,19.61a5.61,5.61,0,0,0-1.28-.16,4.87,4.87,0,0,0-1.23.16c-7.8-9.2-16.63-18.7-25.35-27.93-.11,3-.16,6.87-.16,11.7,0,6.61.21,13.8.43,15.85a10.09,10.09,0,0,0-2.2-.27,10.32,10.32,0,0,0-2.25.27c.38-2,1.13-15.85,1.13-24.86,0-5.8-.11-10-.21-12.51a12.81,12.81,0,0,0,1.39.11,14.17,14.17,0,0,0,1.44-.11c8.24,9,18,19.7,25.3,27.27,0-9.07,0-21.58-.43-26.95a9.8,9.8,0,0,0,2.14.27,9,9,0,0,0,2-.27c-.33,5.21-.71,13.2-.76,17.82" transform="translate(-8.67 -18.87)"/><path class="cls-2" d="M89.53,156.8a22.42,22.42,0,0,1-11.83-3.93A10.41,10.41,0,0,0,80,150.56a10.59,10.59,0,0,0,1.24-2.7c1,2.85,3.87,5.66,9.09,5.66s8.88-3.93,8.88-7.59c0-9.05-19.8-4.91-19.8-17.35,0-6.73,5.91-10.45,13.77-10.45a18.51,18.51,0,0,1,10.17,3,7,7,0,0,0-2,2,16.52,16.52,0,0,0-1.18,2.53,7.48,7.48,0,0,0-7.43-4.85c-4.25,0-7.27,2.64-7.27,5.93,0,9,20.56,5.38,20.51,17.07,0,9.21-6.63,13-16.47,13" transform="translate(-8.67 -18.87)"/><path class="cls-2" d="M143.69,156a17.74,17.74,0,0,0-2.21-.27,17.62,17.62,0,0,0-2.26.27c-2.58-9.4-5.54-18.86-8.81-28.59h-.11c-2,6.13-6.78,19.78-9.41,28.59a16.62,16.62,0,0,0-2.26-.27,16.66,16.66,0,0,0-2.21.27c-1.51-5.8-3.71-14.29-6.51-23.43-.86-2.9-4-11.66-4.89-13.65a35.84,35.84,0,0,0,4.09.27,24.06,24.06,0,0,0,3.38-.27c2.37,10.05,4.79,18.92,7.86,29.51h.1c2.43-7.48,8-24.24,9.36-29.51a8.5,8.5,0,0,0,4.25,0c1.24,5.32,7.21,23.17,9,29.51h.11c2.1-6.94,7.48-25,8.45-29.51a8.58,8.58,0,0,0,2,.27,9.91,9.91,0,0,0,2.1-.27C154,123.5,146.22,147.2,143.69,156" transform="translate(-8.67 -18.87)"/></svg>